<svg id="kity_svg_6" xmlns="http://www.w3.org/2000/svg" xmlns:xlink="http://www.w3.org/1999/xlink" version="1.1" width="1023" height="177" style="display: inline; background: rgb(251, 251, 251);" viewBox="0 0 1023 177"><defs id="kity_defs_7"><linearGradient id="kity_linearGradient_17" x1="0" y1="0" x2="0" y2="1"><stop id="kity_stop_18" offset="0" stop-color="rgb(255, 255, 255)"></stop><stop id="kity_stop_19" offset="1" stop-color="rgb(204, 204, 204)"></stop></linearGradient><marker id="kity_marker_2" orient="auto" refX="6" refY="0" viewBox="-7 -7 14 14" markerWidth="7" markerHeight="7" markerUnits="userSpaceOnUse"><path id="kity_path_3" fill="rgb(115, 161, 191)" stroke="none" d="M6,0A6,6,0,1,1,-6,0A6,6,0,1,1,6,0"></path></marker></defs><g id="kity_g_8"><g id="minder1" text-rendering="optimize-speed"><g id="minder_connect_group1"><path id="kity_path_31" fill="none" stroke="rgb(115, 161, 191)" stroke-width="1" d="M537.5,87.5C522.5,87.5,522.5,45.5,507.5,45.5L432.5,45.5"></path><path id="kity_path_53" fill="none" stroke="rgb(115, 161, 191)" stroke-width="1" d="M537.5,87.5C522.5,87.5,522.5,97.5,507.5,97.5L437.5,97.5"></path><path id="kity_path_105" fill="none" stroke="rgb(115, 161, 191)" stroke-width="1" d="M769,87.5A152.5,33,0,0,1,921.5,54.5"></path><path id="kity_path_121" fill="none" stroke="rgb(115, 161, 191)" stroke-width="1" d="M537.5,87.5C522.5,87.5,522.5,157.5,507.5,157.5L431.5,157.5"></path><path id="kity_path_217" fill="none" stroke="rgb(115, 161, 191)" stroke-width="1" d="M769,87.5A152.5,33,0,0,0,921.5,120.5"></path><path id="kity_path_231" fill="none" stroke="rgb(115, 161, 191)" stroke-width="1" d="M769,87.5A152.5,0,0,0,1,616.5,87.5"></path><path id="kity_path_240" fill="none" stroke="rgb(115, 161, 191)" stroke-width="1" d="M298.5,45.5C283.5,45.5,283.5,45.5,268.5,45.5L201.5,45.5"></path><path id="kity_path_241" fill="none" stroke="rgb(115, 161, 191)" stroke-width="1" d="M432.5,45.5C417.5,45.5,417.5,45.5,402.5,45.5L298.5,45.5"></path><path id="kity_path_246" fill="none" stroke="rgb(115, 161, 191)" stroke-width="1" d="M303.5,97.5C288.5,97.5,288.5,97.5,273.5,97.5L206.5,97.5"></path><path id="kity_path_247" fill="none" stroke="rgb(115, 161, 191)" stroke-width="1" d="M437.5,97.5C422.5,97.5,422.5,97.5,407.5,97.5L303.5,97.5"></path><path id="kity_path_251" fill="none" stroke="rgb(115, 161, 191)" stroke-width="1" d="M142.5,157.5C127.5,157.5,127.5,157.5,112.5,157.5L20.5,157.5"></path><path id="kity_path_252" fill="none" stroke="rgb(115, 161, 191)" stroke-width="1" d="M301.5,157.5C286.5,157.5,286.5,157.5,271.5,157.5L142.5,157.5"></path><path id="kity_path_253" fill="none" stroke="rgb(115, 161, 191)" stroke-width="1" d="M431.5,157.5C416.5,157.5,416.5,157.5,401.5,157.5L301.5,157.5"></path></g><g id="minder_node1"><path id="node_outline1" fill="rgb(115, 161, 191)" stroke="rgb(115, 161, 191)" d="M739.5,67.5h59a5,5,0,0,1,5,5v30a5,5,0,0,1,-5,5h-59a5,5,0,0,1,-5,-5v-30a5,5,0,0,1,5,-5z" stroke-width="3"></path><g id="node_text1" fill="white"><text id="kity_text_22" text-rendering="inherit" font-size="16" dy=".8em" y="79.5" x="758.5">src</text></g></g><g id="kity_g_14" display="none"><path id="kity_path_15" fill="rgba(0, 92, 153, 0.5)" stroke="none" d="M537.5,150.5h77v20h-77z"></path><path id="kity_path_16" fill="none" stroke="rgb(0, 76, 128)" d="M537.5,150.5L614.5,150.5" stroke-width="1"></path></g><g id="minder_node2" opacity="1"><g id="node_expander1" style="cursor: pointer;"><path id="kity_path_36" fill="white" stroke="gray" d="M509.5,31.5A6,6,0,1,1,497.5,31.5A6,6,0,1,1,509.5,31.5"></path><path id="kity_path_37" fill="none" stroke="gray" d="M499,31.5L508,31.5"></path></g><path id="node_outline2" fill="none" stroke="none" d="M437.5,20.5h55a5,5,0,0,1,5,5v12a5,5,0,0,1,-5,5h-55a5,5,0,0,1,-5,-5v-12a5,5,0,0,1,5,-5z" stroke-width="3"></path><g id="node_text2" fill="black"><text id="kity_text_33" text-rendering="inherit" font-size="12" dy=".8em" y="25.5" x="442.5">website</text></g><g id="node_progress1" display="none"><path id="kity_path_225" fill="#FFED83" stroke="none" d="M437,32A9,9,0,1,1,419,32A9,9,0,1,1,437,32"></path><path id="kity_path_226" fill="#43BC00" stroke="none" d="M428,32"></path><path id="kity_path_227" fill="#8E8E8E" stroke="none" d="M428,25c4.418,0,8,3.582,8,8h1c0,-5.523,-3.477,-10,-9,-10S419,27.477,419,33h1C420,28.582,423.582,25,428,25z"></path><path id="kity_path_229" fill="#EEE" stroke="none" d="M433.812,29.896l-6.75,6.75l-4.5,-4.5L424.25,30.459l2.812,2.803l5.062,-5.053L433.812,29.896z" display="none"></path><path id="kity_path_228" fill="url(#kity_linearGradient_17)" stroke="none" d="M428,22C422.477,22,418,26.477,418,32c0,5.523,4.477,10,10,10s10,-4.477,10,-10C438,26.477,433.523,22,428,22zM428,40c-4.418,0,-8,-3.582,-8,-8s3.582,-8,8,-8s8,3.582,8,8S432.418,40,428,40z"></path></g></g><g id="minder_node4" opacity="1"><g id="node_expander3" style="cursor: pointer;"><path id="kity_path_58" fill="white" stroke="gray" d="M509.5,83.5A6,6,0,1,1,497.5,83.5A6,6,0,1,1,509.5,83.5"></path><path id="kity_path_59" fill="none" stroke="gray" d="M499,83.5L508,83.5"></path></g><path id="node_outline4" fill="none" stroke="none" d="M442.5,72.5h50a5,5,0,0,1,5,5v12a5,5,0,0,1,-5,5h-50a5,5,0,0,1,-5,-5v-12a5,5,0,0,1,5,-5z" stroke-width="3"></path><g id="node_text4" fill="black"><text id="kity_text_55" text-rendering="inherit" font-size="12" dy=".8em" y="77.5" x="447.5">mobile</text></g></g><g id="minder_node10" opacity="1"><g id="node_expander9" style="cursor: pointer;" display="none"><path id="kity_path_110" fill="white" stroke="gray" d="M922.5,54.5A6,6,0,1,1,910.5,54.5A6,6,0,1,1,922.5,54.5"></path><path id="kity_path_111" fill="none" stroke="gray"></path></g><path id="node_outline10" fill="rgb(238, 243, 246)" stroke="rgb(115, 161, 191)" d="M926.5,41.5h61a3,3,0,0,1,3,3v20a3,3,0,0,1,-3,3h-61a3,3,0,0,1,-3,-3v-20a3,3,0,0,1,3,-3z" stroke-width="1"></path><g id="node_text10" fill="black"><text id="kity_text_107" text-rendering="inherit" font-size="14" dy=".8em" y="47.5" x="943.5">i18n</text></g></g><g id="minder_node12" opacity="1"><g id="node_expander11" style="cursor: pointer;"><path id="kity_path_126" fill="white" stroke="gray" d="M509.5,139.5A6,6,0,1,1,497.5,139.5A6,6,0,1,1,509.5,139.5"></path><path id="kity_path_127" fill="none" stroke="gray" d="M499,139.5L508,139.5"></path></g><path id="node_outline12" fill="none" stroke="none" d="M436.5,124.5h56a5,5,0,0,1,5,5v20a5,5,0,0,1,-5,5h-56a5,5,0,0,1,-5,-5v-20a5,5,0,0,1,5,-5z" stroke-width="3"></path><g id="node_text12" fill="black"><text id="kity_text_123" text-rendering="inherit" font-size="12" dy=".8em" y="133.5" x="466.5">utils</text></g><g id="node_priority2"><path id="kity_path_159" fill="#840023" stroke="none" d="M442,143c0,3.866,3.134,7,7,7h6c3.866,0,7,-3.134,7,-7V137H442V143z"></path><path id="kity_path_160" fill="#FF1200" stroke="none" d="M462,140c0,3.866,-3.134,7,-7,7H449c-3.866,0,-7,-3.134,-7,-7V137c0,-3.866,3.134,-7,7,-7h6c3.866,0,7,3.134,7,7V140z" opacity="0.8"></path><text id="kity_text_161" text-rendering="geometricPrecision" x="451" y="139.5" text-anchor="middle" font-style="italic" font-size="12" fill="white" dy="4">1</text></g></g><g id="minder_node20"><g id="node_expander19" style="cursor: pointer;" display="none"><path id="kity_path_222" fill="white" stroke="gray" d="M922.5,120.5A6,6,0,1,1,910.5,120.5A6,6,0,1,1,922.5,120.5"></path><path id="kity_path_223" fill="none" stroke="gray"></path></g><path id="node_outline20" fill="rgb(238, 243, 246)" stroke="rgb(115, 161, 191)" d="M926.5,107.5h74a3,3,0,0,1,3,3v20a3,3,0,0,1,-3,3h-74a3,3,0,0,1,-3,-3v-20a3,3,0,0,1,3,-3z" stroke-width="1"></path><g id="node_text20" fill="black"><text id="kity_text_219" text-rendering="inherit" font-size="14" dy=".8em" y="113.5" x="943.5">server</text></g></g><g id="minder_node21" opacity="1"><g id="node_expander20" style="cursor: pointer;"><path id="kity_path_236" fill="white" stroke="gray" d="M627.5,87.5A6,6,0,1,1,615.5,87.5A6,6,0,1,1,627.5,87.5"></path><path id="kity_path_237" fill="none" stroke="gray" d="M617,87.5L626,87.5"></path></g><path id="node_outline21" fill="rgb(238, 243, 246)" stroke="rgb(115, 161, 191)" d="M540.5,74.5h71a3,3,0,0,1,3,3v20a3,3,0,0,1,-3,3h-71a3,3,0,0,1,-3,-3v-20a3,3,0,0,1,3,-3z" stroke-width="1"></path><g id="node_text21" fill="black"><text id="kity_text_233" text-rendering="inherit" font-size="14" dy=".8em" y="80.5" x="557.5">client</text></g></g><g id="minder_node16"><g id="node_expander15" style="cursor: pointer;" display="none"><path id="kity_path_178" fill="white" stroke="gray" d="M270.5,31.5A6,6,0,1,1,258.5,31.5A6,6,0,1,1,270.5,31.5"></path><path id="kity_path_179" fill="none" stroke="gray"></path></g><path id="node_outline16" fill="none" stroke="none" d="M206.5,20.5h47a5,5,0,0,1,5,5v12a5,5,0,0,1,-5,5h-47a5,5,0,0,1,-5,-5v-12a5,5,0,0,1,5,-5z" stroke-width="3"></path><g id="node_text16" fill="black"><text id="kity_text_175" text-rendering="inherit" font-size="12" dy=".8em" y="25.5" x="211.5">pages</text></g></g><g id="minder_node3" opacity="1"><g id="node_expander2" style="cursor: pointer;"><path id="kity_path_44" fill="white" stroke="gray" d="M404.5,31.5A6,6,0,1,1,392.5,31.5A6,6,0,1,1,404.5,31.5"></path><path id="kity_path_45" fill="none" stroke="gray" d="M394,31.5L403,31.5"></path></g><path id="node_outline3" fill="none" stroke="none" d="M303.5,20.5h84a5,5,0,0,1,5,5v12a5,5,0,0,1,-5,5h-84a5,5,0,0,1,-5,-5v-12a5,5,0,0,1,5,-5z" stroke-width="3"></path><g id="node_text3" fill="black"><text id="kity_text_41" text-rendering="inherit" font-size="12" dy=".8em" y="25.5" x="308.5">components</text></g></g><g id="minder_node17"><g id="node_expander16" style="cursor: pointer;" display="none"><path id="kity_path_186" fill="white" stroke="gray" d="M275.5,83.5A6,6,0,1,1,263.5,83.5A6,6,0,1,1,275.5,83.5"></path><path id="kity_path_187" fill="none" stroke="gray"></path></g><path id="node_outline17" fill="none" stroke="none" d="M211.5,72.5h47a5,5,0,0,1,5,5v12a5,5,0,0,1,-5,5h-47a5,5,0,0,1,-5,-5v-12a5,5,0,0,1,5,-5z" stroke-width="3"></path><g id="node_text17" fill="black"><text id="kity_text_183" text-rendering="inherit" font-size="12" dy=".8em" y="77.5" x="216.5">pages</text></g></g><g id="minder_node7" opacity="1"><g id="node_expander6" style="cursor: pointer;"><path id="kity_path_85" fill="white" stroke="gray" d="M409.5,83.5A6,6,0,1,1,397.5,83.5A6,6,0,1,1,409.5,83.5"></path><path id="kity_path_86" fill="none" stroke="gray" d="M399,83.5L408,83.5"></path></g><path id="node_outline7" fill="none" stroke="none" d="M308.5,72.5h84a5,5,0,0,1,5,5v12a5,5,0,0,1,-5,5h-84a5,5,0,0,1,-5,-5v-12a5,5,0,0,1,5,-5z" stroke-width="3"></path><g id="node_text7" fill="black"><text id="kity_text_82" text-rendering="inherit" font-size="12" dy=".8em" y="77.5" x="313.5">components</text></g></g><g id="kity_g_12" display="none"><path id="kity_path_13" fill="none" stroke="rgb(66, 94, 112)" d="M540.5,119.5h71a3,3,0,0,1,3,3v20a3,3,0,0,1,-3,3h-71a3,3,0,0,1,-3,-3v-20a3,3,0,0,1,3,-3z" stroke-width="5"></path></g><g id="minder_node15"><g id="node_expander14" style="cursor: pointer;" display="none"><path id="kity_path_150" fill="white" stroke="gray" d="M114.5,139.5A6,6,0,1,1,102.5,139.5A6,6,0,1,1,114.5,139.5"></path><path id="kity_path_151" fill="none" stroke="gray"></path></g><path id="node_outline15" fill="none" stroke="none" d="M25.5,124.5h72a5,5,0,0,1,5,5v20a5,5,0,0,1,-5,5h-72a5,5,0,0,1,-5,-5v-20a5,5,0,0,1,5,-5z" stroke-width="3"></path><g id="node_text15" fill="black"><text id="kity_text_147" text-rendering="inherit" font-size="12" dy=".8em" y="133.5" x="55.5">pages</text></g><g id="node_priority4"><path id="kity_path_169" fill="#B25000" stroke="none" d="M31,143c0,3.866,3.134,7,7,7h6c3.866,0,7,-3.134,7,-7V137H31V143z"></path><path id="kity_path_170" fill="#FF962E" stroke="none" d="M51,140c0,3.866,-3.134,7,-7,7H38c-3.866,0,-7,-3.134,-7,-7V137c0,-3.866,3.134,-7,7,-7h6c3.866,0,7,3.134,7,7V140z" opacity="0.8"></path><text id="kity_text_171" text-rendering="geometricPrecision" x="40" y="139.5" text-anchor="middle" font-style="italic" font-size="12" fill="white" dy="4">4</text></g></g><g id="minder_node14"><g id="node_expander13" style="cursor: pointer;"><path id="kity_path_142" fill="white" stroke="gray" d="M273.5,139.5A6,6,0,1,1,261.5,139.5A6,6,0,1,1,273.5,139.5"></path><path id="kity_path_143" fill="none" stroke="gray" d="M263,139.5L272,139.5"></path></g><path id="node_outline14" fill="none" stroke="none" d="M147.5,124.5h109a5,5,0,0,1,5,5v20a5,5,0,0,1,-5,5h-109a5,5,0,0,1,-5,-5v-20a5,5,0,0,1,5,-5z" stroke-width="3"></path><g id="node_text14" fill="black"><text id="kity_text_139" text-rendering="inherit" font-size="12" dy=".8em" y="133.5" x="177.5">components</text></g><g id="node_priority3"><path id="kity_path_164" fill="#006300" stroke="none" d="M153,143c0,3.866,3.134,7,7,7h6c3.866,0,7,-3.134,7,-7V137H153V143z"></path><path id="kity_path_165" fill="#00AF00" stroke="none" d="M173,140c0,3.866,-3.134,7,-7,7H160c-3.866,0,-7,-3.134,-7,-7V137c0,-3.866,3.134,-7,7,-7h6c3.866,0,7,3.134,7,7V140z" opacity="0.8"></path><text id="kity_text_166" text-rendering="geometricPrecision" x="162" y="139.5" text-anchor="middle" font-style="italic" font-size="12" fill="white" dy="4">3</text></g></g><g id="minder_node13"><g id="node_expander12" style="cursor: pointer;"><path id="kity_path_134" fill="white" stroke="gray" d="M403.5,139.5A6,6,0,1,1,391.5,139.5A6,6,0,1,1,403.5,139.5"></path><path id="kity_path_135" fill="none" stroke="gray" d="M393,139.5L402,139.5"></path></g><path id="node_outline13" fill="none" stroke="none" d="M306.5,124.5h80a5,5,0,0,1,5,5v20a5,5,0,0,1,-5,5h-80a5,5,0,0,1,-5,-5v-20a5,5,0,0,1,5,-5z" stroke-width="3"></path><g id="node_text13" fill="black"><text id="kity_text_131" text-rendering="inherit" font-size="12" dy=".8em" y="133.5" x="336.5">services</text></g><g id="node_priority1"><path id="kity_path_154" fill="#01467F" stroke="none" d="M312,143c0,3.866,3.134,7,7,7h6c3.866,0,7,-3.134,7,-7V137H312V143z"></path><path id="kity_path_155" fill="#0074FF" stroke="none" d="M332,140c0,3.866,-3.134,7,-7,7H319c-3.866,0,-7,-3.134,-7,-7V137c0,-3.866,3.134,-7,7,-7h6c3.866,0,7,3.134,7,7V140z" opacity="0.8"></path><text id="kity_text_156" text-rendering="geometricPrecision" x="321" y="139.5" text-anchor="middle" font-style="italic" font-size="12" fill="white" dy="4">2</text></g></g></g></g></svg>